<svg xmlns="http://www.w3.org/2000/svg" viewBox="0 0 512 512">
  <path fill="#00A8E1" d="M480.4 334.5c-4.6-2.8-10.7-1.3-13.5 3.3-31.6 50.3-132.3 85.9-211.1 85.9-86.7 0-191.5-43.7-211.1-85.9-2.8-4.6-8.9-6.1-13.5-3.3s-6.1 8.9-3.3 13.5c26.9 46.2 140.8 99.8 227.9 99.8 82.8 0 200.8-40.1 227.9-99.8 2.8-4.7 1.2-10.7-3.3-13.5zM197 185.5v120c0 5 4 9 9 9h27c5 0 9-4 9-9v-64.3c0-19.3 10.5-33.8 28.4-33.8 16.5 0 25.8 11.5 25.8 32.1v66c0 5 4 9 9 9h27c5 0 9-4 9-9v-72.5c0-37.5-19.9-61.5-52.8-61.5-20.2 0-34.4 9-43.4 24v-20.5c0-5-4-9-9-9h-27c-5 0-9 4-9 9z"/>
</svg>
